<?xml version="1.0" standalone="no"?>
<!DOCTYPE svg PUBLIC "-//W3C//DTD SVG 20010904//EN"
 "http://www.w3.org/TR/2001/REC-SVG-20010904/DTD/svg10.dtd">
<svg version="1.0" xmlns="http://www.w3.org/2000/svg"
 width="512.000000pt" height="512.000000pt" viewBox="0 0 512.000000 512.000000"
 preserveAspectRatio="xMidYMid meet">

<g transform="translate(0.000000,512.000000) scale(0.100000,-0.100000)"
fill="#000000" stroke="none">
<path d="M3264 4633 c-4 -15 -13 -38 -20 -52 -8 -14 -14 -32 -14 -39 0 -7 -4
-20 -9 -30 -6 -9 -19 -51 -31 -92 -12 -41 -25 -83 -30 -92 -5 -9 -10 -135 -11
-279 -1 -221 2 -264 14 -277 14 -13 19 -7 50 54 38 77 47 112 63 257 4 31 10
57 13 57 3 0 5 37 4 82 -2 46 2 99 9 118 17 50 11 254 -8 291 -18 36 -22 36
-30 2z m26 -27 c0 -3 -4 -8 -10 -11 -5 -3 -10 -1 -10 4 0 6 5 11 10 11 6 0 10
-2 10 -4z m-27 -281 c-3 -9 -8 -14 -10 -11 -3 3 -2 9 2 15 9 16 15 13 8 -4z
m-4 -62 c0 -25 -1 -26 -9 -8 -12 27 -12 35 0 35 6 0 10 -12 9 -27z m-14 -137
c-21 -49 -30 -40 -15 14 7 27 15 39 21 33 6 -6 4 -23 -6 -47z m-45 -196 c0 -5
-5 -10 -11 -10 -5 0 -7 5 -4 10 3 6 8 10 11 10 2 0 4 -4 4 -10z"/>
<path d="M3406 4261 c-26 -28 -17 -65 15 -69 21 -2 27 2 30 20 11 62 -12 86
-45 49z"/>
<path d="M3420 4018 c-8 -24 -18 -49 -24 -57 -16 -21 -15 -276 2 -292 6 -7 12
-21 12 -32 0 -10 13 -46 28 -80 16 -34 37 -83 48 -109 10 -27 24 -48 29 -48
23 0 103 182 119 270 2 14 5 25 6 25 8 0 7 137 -2 160 -46 123 -77 164 -140
187 -29 10 -55 18 -59 18 -3 0 -12 -19 -19 -42z m85 -243 c0 -22 -5 -40 -12
-42 -9 -3 -13 9 -13 42 0 33 4 45 13 43 7 -3 12 -21 12 -43z"/>
<path d="M2572 3760 c-19 -31 -16 -107 6 -118 20 -10 52 -3 73 17 13 13 14 20
1 55 -7 23 -18 47 -24 53 -15 19 -42 16 -56 -7z"/>
<path d="M2356 3625 c-14 -15 -25 -30 -24 -34 1 -3 -1 -32 -5 -65 -7 -51 -5
-63 18 -103 14 -25 22 -49 19 -54 -5 -8 12 -49 25 -59 4 -3 12 -17 18 -32 10
-23 19 -28 48 -28 28 0 35 -4 35 -19 0 -11 9 -23 20 -26 11 -4 18 -11 14 -16
-4 -6 -13 -4 -23 5 -10 9 -30 16 -46 16 -27 0 -28 -1 -21 -47 3 -26 11 -52 16
-57 13 -13 13 -36 -1 -36 -5 0 -17 16 -25 35 -8 19 -18 35 -22 35 -11 0 -37
-43 -34 -57 2 -7 -2 -13 -8 -13 -18 0 -11 -34 14 -65 22 -28 25 -29 50 -16 14
8 29 11 33 8 3 -4 1 -7 -5 -7 -15 0 -16 -76 -2 -85 6 -3 10 -17 10 -31 0 -14
7 -27 15 -30 9 -4 15 -19 15 -38 0 -19 8 -38 20 -49 26 -22 33 -21 55 3 10 11
24 20 31 20 7 0 16 5 19 10 10 16 16 101 8 114 -4 6 -6 23 -4 38 1 16 -2 28
-7 28 -6 0 -8 17 -5 42 4 23 2 39 -3 35 -5 -3 -10 6 -10 20 -2 18 6 30 30 43
39 24 67 69 59 98 -5 22 -15 26 -68 22 -29 -2 -30 -2 -12 18 10 11 39 25 64
33 43 12 121 74 109 86 -3 3 -16 7 -28 8 -41 4 -43 5 -29 14 11 7 9 11 -8 20
-11 7 -21 16 -21 22 0 6 7 6 19 -1 34 -18 34 -11 2 22 -17 17 -28 34 -26 37 3
2 12 -5 21 -17 8 -12 20 -22 25 -22 6 0 -2 16 -18 36 -15 20 -29 31 -31 25 -6
-18 -22 -2 -22 23 0 33 -11 39 -33 19 -19 -17 -20 -17 -8 4 12 23 11 23 -56
23 -37 0 -77 1 -88 1 -11 1 -28 -2 -39 -6 -15 -7 -17 -5 -12 12 4 13 -2 27
-18 42 l-25 23 -25 -27z m239 -105 c3 -5 -1 -10 -9 -10 -9 0 -16 5 -16 10 0 6
4 10 9 10 6 0 13 -4 16 -10z m-125 -40 c0 -6 -12 -23 -27 -38 -34 -34 -46 -12
-12 24 24 25 39 31 39 14z m144 -2 c-4 -6 5 -21 22 -35 17 -13 21 -21 11 -17
-18 7 -67 50 -67 59 0 3 9 5 21 5 13 0 18 -4 13 -12z m-104 -342 c0 -6 -11 1
-25 16 -14 15 -25 30 -25 34 0 4 11 -3 25 -16 14 -13 25 -28 25 -34z m70 -187
c0 -56 -9 -62 -28 -20 -10 22 -10 34 -1 55 17 37 29 23 29 -35z m-40 -40 c0
-11 -4 -17 -10 -14 -5 3 -10 13 -10 21 0 8 5 14 10 14 6 0 10 -9 10 -21z m20
-90 c0 -5 -4 -9 -10 -9 -5 0 -10 7 -10 16 0 8 5 12 10 9 6 -3 10 -10 10 -16z"/>
<path d="M3258 3623 c-20 -5 -30 -79 -11 -94 23 -19 51 -1 55 37 4 38 -15 63
-44 57z"/>
<path d="M1584 3468 c-11 -13 -26 -31 -33 -40 -18 -24 -38 -116 -52 -243 -6
-60 -15 -114 -19 -120 -14 -18 -23 -74 -35 -205 -6 -63 -3 -88 14 -145 20 -63
22 -89 20 -272 l-2 -203 28 -54 c16 -30 32 -53 36 -51 4 3 26 44 50 91 65 128
66 129 117 186 27 29 63 78 81 108 18 30 69 92 114 138 l82 82 -3 72 c-2 40
-7 79 -12 88 -6 10 -3 22 10 35 11 12 22 38 26 59 l6 39 -34 -7 c-18 -3 -38
-13 -44 -21 -19 -25 -9 -40 -108 165 -53 108 -70 135 -92 138 -27 5 -34 14
-36 47 -1 17 -12 47 -25 67 -13 21 -23 42 -23 47 0 8 -23 21 -39 21 -4 0 -16
-10 -27 -22z m146 -183 c0 -8 -2 -15 -4 -15 -2 0 -6 7 -10 15 -3 8 -1 15 4 15
6 0 10 -7 10 -15z m36 -143 c-6 -5 -36 89 -35 107 0 9 9 -11 20 -44 10 -32 17
-61 15 -63z m214 -157 c0 -14 -2 -25 -4 -25 -2 0 -6 11 -8 25 -3 14 -1 25 3
25 5 0 9 -11 9 -25z"/>
<path d="M3138 3453 c-50 -57 -65 -152 -34 -210 14 -28 22 -33 51 -33 29 0 39
6 60 38 46 69 42 140 -10 196 -28 30 -46 33 -67 9z m83 -90 c-9 -16 -10 -14
-11 12 0 21 3 26 11 18 8 -8 8 -16 0 -30z"/>
<path d="M3560 3237 c-60 -20 -67 -26 -98 -79 -29 -49 -39 -58 -63 -58 -41 0
-99 -30 -103 -55 -32 -168 -92 -292 -186 -382 -54 -52 -82 -70 -170 -106
l-105 -44 -120 5 c-111 4 -124 7 -180 36 -55 29 -83 58 -135 135 -41 62 -54
72 -90 64 -22 -4 -51 -23 -80 -52 -25 -25 -53 -51 -64 -56 -16 -9 -19 -27 -23
-160 l-5 -150 -67 -70 c-37 -38 -76 -88 -86 -110 -10 -22 -25 -55 -34 -72 -15
-31 -14 -35 17 -95 21 -40 47 -73 71 -90 59 -40 248 -98 323 -98 35 0 68 -4
75 -8 13 -8 66 -83 61 -86 -2 -1 -38 -10 -81 -19 -90 -19 -110 -14 -169 42
-36 33 -70 43 -150 42 -17 0 -108 -57 -108 -67 0 -3 5 -2 11 2 6 4 25 10 43
14 17 4 40 11 51 15 11 4 1 -7 -22 -24 l-42 -32 -3 -83 c-2 -46 0 -82 5 -79 4
2 7 -5 7 -16 0 -12 4 -21 8 -21 4 0 8 -10 9 -22 1 -11 6 -24 10 -27 7 -6 30
-45 72 -126 9 -16 19 -31 24 -33 4 -2 7 -8 7 -14 0 -6 18 -39 39 -73 22 -35
37 -65 34 -69 -3 -3 -1 -11 4 -18 6 -7 14 -30 17 -52 4 -21 11 -46 16 -55 4
-9 18 -52 30 -96 12 -44 31 -104 41 -134 11 -29 18 -56 15 -59 -3 -2 0 -10 7
-18 31 -35 67 -98 67 -119 0 -13 84 -95 97 -95 5 0 31 10 60 22 51 23 52 24
68 88 9 36 21 81 26 100 5 19 14 58 20 85 5 28 11 55 13 60 1 6 6 33 10 60 13
86 66 257 112 362 8 17 14 37 14 45 0 8 5 19 12 26 16 16 19 120 3 167 -29 90
-55 179 -55 191 0 7 -14 23 -31 35 -26 19 -30 27 -26 54 12 75 80 174 162 235
11 8 67 53 125 100 107 87 220 175 369 288 220 165 265 213 313 328 20 49 42
105 48 126 6 20 17 39 25 42 12 4 15 29 15 117 0 95 -3 114 -17 125 -10 7 -13
14 -8 14 6 0 -13 25 -41 56 -63 68 -96 75 -194 41z m101 -17 c24 0 5 -20 -25
-25 -63 -12 -73 -3 -30 28 31 22 40 24 42 12 2 -8 8 -15 13 -15z m25 -82 c12
-20 6 -221 -7 -229 -6 -3 -13 -22 -14 -40 -2 -19 -4 -35 -4 -36 -1 -2 -1 -5
-1 -8 1 -8 -28 -61 -72 -131 -26 -41 -51 -67 -76 -80 -20 -10 -54 -33 -74 -51
-54 -47 -200 -114 -259 -118 -27 -2 -49 0 -49 4 0 13 47 34 59 27 6 -4 11 0
11 8 0 10 9 16 25 16 14 0 25 5 25 12 0 19 32 48 52 48 33 0 95 38 125 77 32
42 88 154 99 199 4 15 13 39 20 53 7 13 10 29 7 34 -8 12 16 27 46 27 20 0 22
-4 16 -22 -3 -13 -10 -37 -14 -54 -13 -50 -56 -137 -82 -165 -50 -53 -52 -58
-39 -74 16 -20 34 -19 26 1 -4 10 5 27 23 45 36 35 87 156 99 233 l9 57 -51
-3 -51 -3 -10 -62 c-5 -34 -13 -65 -17 -69 -5 -4 -8 -14 -8 -22 0 -29 -60
-139 -99 -180 -35 -39 -81 -57 -81 -32 0 6 4 10 9 10 13 0 71 59 71 72 0 6 -7
5 -17 -3 -16 -13 -17 -12 -4 3 7 10 17 16 21 13 8 -5 37 54 32 68 -1 4 2 7 7
7 5 0 17 19 27 43 12 30 18 76 21 167 3 111 5 125 21 125 14 0 18 -10 20 -52
2 -28 8 -53 15 -56 15 -6 10 102 -5 121 -8 9 -2 12 25 12 19 0 43 3 52 6 14 6
16 -2 13 -57 -3 -62 -4 -64 -33 -71 -26 -6 -25 -6 10 -5 l40 2 3 73 c2 54 6
72 17 72 8 0 17 -6 21 -12z m-1234 -890 c2 -17 -5 -35 -21 -52 -27 -29 -47
-25 -30 6 6 11 8 31 5 44 -5 18 -3 22 9 18 10 -4 15 0 15 12 0 27 18 4 22 -28z
m648 -11 c-47 -23 -107 -56 -134 -72 -85 -52 -244 -174 -275 -212 -17 -20 -33
-34 -37 -30 -9 9 30 58 117 148 68 69 83 79 184 121 227 96 287 114 145 45z
m-370 -22 c-44 -46 -97 -77 -127 -72 l-28 4 30 2 c19 1 50 17 85 46 62 50 74
56 40 20z m-110 -30 c-7 -8 -28 -15 -47 -15 -64 0 -93 -25 -162 -142 -25 -42
-41 -49 -41 -18 0 30 35 95 67 125 34 31 116 64 162 64 29 1 32 -1 21 -14z
m-50 -35 c0 -5 -9 -10 -19 -10 -10 0 -33 -16 -50 -35 -33 -38 -42 -35 -15 4 9
13 31 29 48 37 38 16 36 16 36 4z m108 -52 c-20 -38 -27 -42 -61 -44 -22 0
-42 -6 -46 -12 -12 -20 -62 -34 -77 -21 -11 9 -11 15 0 38 26 49 51 64 94 56
27 -4 39 -11 38 -22 -2 -28 21 -25 29 4 6 27 21 43 38 43 5 0 -2 -19 -15 -42z
m72 23 c-5 -11 -15 -23 -22 -27 -7 -5 -8 -2 -3 7 21 37 44 55 25 20z m-640
-72 c0 -37 -4 -58 -10 -54 -5 3 -10 31 -10 61 0 30 5 54 10 54 6 0 10 -27 10
-61z m580 -12 c-19 -18 -27 -23 -20 -12 27 38 43 55 49 50 3 -3 -10 -20 -29
-38z m-543 11 c-3 -8 -6 -5 -6 6 -1 11 2 17 5 13 3 -3 4 -12 1 -19z m15 -53
c-3 -19 5 -34 32 -61 41 -41 43 -55 4 -24 -29 23 -53 73 -44 95 9 23 14 18 8
-10z m552 -302 c15 -20 19 -42 18 -107 -1 -78 -3 -85 -62 -200 -33 -66 -60
-116 -60 -110 0 5 9 38 20 74 25 80 26 162 6 260 -15 73 -15 75 5 93 29 24 51
21 73 -10z m-182 -93 c15 0 28 -5 28 -11 0 -6 -7 -9 -15 -6 -8 4 -17 2 -20 -3
-4 -6 -11 -10 -16 -10 -6 0 -7 5 -4 10 3 6 -3 10 -14 10 -11 0 -22 4 -25 9 -8
13 17 21 29 10 5 -5 22 -9 37 -9z m-82 -18 c13 -13 11 -14 -20 -8 -18 3 -37
11 -40 16 -4 6 -15 8 -26 4 -15 -5 -16 -4 -4 4 18 13 70 4 90 -16z m-128 -97
c23 -16 47 -47 67 -87 18 -35 36 -70 41 -78 56 -95 80 -139 80 -145 0 -17 -37
27 -58 67 -40 79 -49 85 -134 91 l-77 5 25 -56 c38 -84 39 -86 27 -79 -22 14
-92 173 -99 223 -6 46 -4 53 17 68 33 23 68 20 111 -9z m265 -307 c-3 -8 -6
-5 -6 6 -1 11 2 17 5 13 3 -3 4 -12 1 -19z m3 -103 c0 -69 -3 -85 -15 -85 -12
0 -15 14 -15 63 0 69 8 107 21 107 5 0 9 -38 9 -85z m-302 18 c23 -33 37 -73
25 -73 -9 0 -53 74 -53 89 0 17 7 13 28 -16z"/>
<path d="M3565 3100 c-3 -5 1 -10 9 -10 9 0 16 5 16 10 0 6 -4 10 -9 10 -6 0
-13 -4 -16 -10z"/>
<path d="M2227 1475 c-12 -11 -13 -23 -5 -57 5 -24 13 -47 17 -51 22 -23 151
-31 151 -10 0 2 -12 25 -27 50 -40 69 -104 101 -136 68z"/>
<path d="M2627 3084 c-8 -8 1 -24 14 -24 5 0 9 7 9 15 0 15 -12 20 -23 9z"/>
<path d="M2002 1560 c0 -14 2 -19 5 -12 2 6 2 18 0 25 -3 6 -5 1 -5 -13z"/>
</g>
</svg>
